<svg t="1656422658034" class="icon" viewBox="0 0 1024 1024" version="1.1" xmlns="http://www.w3.org/2000/svg" p-id="2262" width="128" height="128"><path d="M461.73607253 716.17522347c0 19.95134293-17.11581867 36.12453547-38.22933333 36.12453546s-38.22933333-16.17319253-38.22933333-36.12453546V422.25390933c0-19.95134293 17.11581867-36.12453547 38.22933333-36.12453546s38.22933333 16.17319253 38.22933333 36.12453546v293.92131414zM638.72259413 716.17522347c0 19.95134293-17.11581867 36.12453547-38.22933333 36.12453546s-38.22933333-16.17319253-38.22933333-36.12453546V422.25390933c0-19.95134293 17.11581867-36.12453547 38.22933333-36.12453546s38.22933333 16.17319253 38.22933333 36.12453546v293.92131414z" fill="#006569" p-id="2263"></path><path d="M871.71945813 196.6800896H694.67286187v-89.33321387c0-1.1862016-0.0557056-2.35820373-0.1605632-3.51491413 0.1015808-1.0059776 0.1605632-2.02287787 0.1605632-3.05288533 0-18.13818027-16.13714773-32.84227413-36.04261547-32.84227414H365.37084587c-19.90546773 0-36.04261547 14.70409387-36.04261547 32.84227414 0 1.03000747 0.0589824 2.04690773 0.1605632 3.05288533a38.91636907 38.91636907 0 0 0-0.1605632 3.51491413v89.33321387H152.28054187c-30.56380587 0-55.3418752 22.0561408-55.3418752 49.2634112 0 27.2072704 24.77697707 49.2634112 55.3418752 49.2634112h24.47988053L224.51541333 862.3816704c0 43.8337536 35.45388373 79.36846507 79.18933334 79.36846507h420.95957333c43.7354496 0 79.18933333-35.53471147 79.18933333-79.36846507l43.4143232-567.17585067h24.45257387c30.56489813 0 55.3418752-22.0561408 55.3418752-49.2634112-0.00109227-27.2072704-24.77806933-49.26231893-55.34296747-49.26231893z m-476.85632-63.05983147h234.27263147v63.0587392H394.86313813v-63.0587392zM725.83304533 866.516992H306.905088l-51.10715733-571.31117227h512.43799893L725.83304533 866.516992z" fill="#006569" p-id="2264"></path></svg>