<svg t="1652087333244" class="icon" viewBox="0 0 1024 1024" version="1.1" xmlns="http://www.w3.org/2000/svg" p-id="5966" width="128" height="128"><path d="M525.266728 1024a512 512 0 0 1 0-1024h32.067369a26.947368 26.947368 0 0 1 21.557895 40.151579A404.210526 404.210526 0 0 0 929.477255 646.736842a400.437895 400.437895 0 0 0 50.661052-3.503158 26.947368 26.947368 0 0 1 24.252632 9.701053 26.947368 26.947368 0 0 1 4.581053 26.947368A512 512 0 0 1 525.266728 1024z m-13.20421-970.105263a458.105263 458.105263 0 1 0 431.157895 646.736842H929.477255A458.105263 458.105263 0 0 1 512.062518 53.894737z" p-id="5967"></path></svg>