<svg t="1652087369874" class="icon" viewBox="0 0 1024 1024" version="1.1" xmlns="http://www.w3.org/2000/svg" p-id="6876" width="128" height="128"><path d="M416 85.333333H138.666667a53.393333 53.393333 0 0 0-53.333334 53.333334v277.333333a53.393333 53.393333 0 0 0 53.333334 53.333333h277.333333a53.393333 53.393333 0 0 0 53.333333-53.333333V138.666667a53.393333 53.393333 0 0 0-53.333333-53.333334z m10.666667 330.666667a10.666667 10.666667 0 0 1-10.666667 10.666667H138.666667a10.666667 10.666667 0 0 1-10.666667-10.666667V138.666667a10.666667 10.666667 0 0 1 10.666667-10.666667h277.333333a10.666667 10.666667 0 0 1 10.666667 10.666667z m458.666666-330.666667H608a53.393333 53.393333 0 0 0-53.333333 53.333334v277.333333a53.393333 53.393333 0 0 0 53.333333 53.333333h277.333333a53.393333 53.393333 0 0 0 53.333334-53.333333V138.666667a53.393333 53.393333 0 0 0-53.333334-53.333334z m10.666667 330.666667a10.666667 10.666667 0 0 1-10.666667 10.666667H608a10.666667 10.666667 0 0 1-10.666667-10.666667V138.666667a10.666667 10.666667 0 0 1 10.666667-10.666667h277.333333a10.666667 10.666667 0 0 1 10.666667 10.666667zM416 554.666667H138.666667a53.393333 53.393333 0 0 0-53.333334 53.333333v277.333333a53.393333 53.393333 0 0 0 53.333334 53.333334h277.333333a53.393333 53.393333 0 0 0 53.333333-53.333334V608a53.393333 53.393333 0 0 0-53.333333-53.333333z m10.666667 330.666666a10.666667 10.666667 0 0 1-10.666667 10.666667H138.666667a10.666667 10.666667 0 0 1-10.666667-10.666667V608a10.666667 10.666667 0 0 1 10.666667-10.666667h277.333333a10.666667 10.666667 0 0 1 10.666667 10.666667z m458.666666-330.666666H608a53.393333 53.393333 0 0 0-53.333333 53.333333v277.333333a53.393333 53.393333 0 0 0 53.333333 53.333334h277.333333a53.393333 53.393333 0 0 0 53.333334-53.333334V608a53.393333 53.393333 0 0 0-53.333334-53.333333z m10.666667 330.666666a10.666667 10.666667 0 0 1-10.666667 10.666667H608a10.666667 10.666667 0 0 1-10.666667-10.666667V608a10.666667 10.666667 0 0 1 10.666667-10.666667h277.333333a10.666667 10.666667 0 0 1 10.666667 10.666667z" fill="#5C5C66" p-id="6877"></path></svg>