<svg t="1652677203821" class="icon" viewBox="0 0 1024 1024" version="1.1" xmlns="http://www.w3.org/2000/svg" p-id="2786" width="128" height="128"><path d="M341.333333 825.566171 377.025977 789.873527 486.760332 899.607882 486.760332 451.83518 537.242101 451.83518 537.242101 899.607882 646.975239 789.873527 682.672748 825.566171 512.003649 996.235271ZM664.688375 715.836682l0-50.486634 114.205514 0c94.005022 0 170.483004-76.475549 170.483004-170.478138 0-89.351416-69.868548-163.951414-159.064277-169.833494l-50.216613-3.357018-6.120477-49.995244c-13.698094-111.962636-109.124983-196.394075-221.970661-196.394075-112.849327 0-208.278649 84.432655-221.976743 196.39894l-6.120477 49.994028-50.22391 3.353369c-89.183566 5.880863-159.052114 80.480861-159.052114 169.833494 0 94.002589 76.475549 170.478138 170.478138 170.478138l114.204297 0 0 50.486634L245.108544 715.836682c-121.840297 0-220.964772-99.124475-220.964772-220.963556 0-56.4125 21.283008-110.087085 59.926423-151.135146 38.454886-40.84737 90.396228-65.381577 146.257739-69.08646l8.543368-0.566801 1.03873-8.499581C256.68904 128.318369 373.664094 24.805445 512.003649 24.805445c138.337122 0 255.308527 103.512924 272.087536 240.778477l1.03873 8.499581 8.543368 0.566801c55.861512 3.704883 107.802853 28.240307 146.256523 69.08646 38.643414 41.049277 59.927639 94.722645 59.927639 151.135146 0 121.839081-99.124475 220.963556-220.964772 220.963556L664.688375 715.835465z" p-id="2787"></path></svg>