<svg t="1656426707877" class="icon" viewBox="0 0 1024 1024" version="1.1" xmlns="http://www.w3.org/2000/svg" p-id="5914" width="128" height="128"><path d="M161.1 511.2l373.6-373.6c26.4-26.4 61-39.5 95.6-39.5 34.6 0 69.2 13.2 95.6 39.5 52.7 52.7 52.7 138.5 0 191.2L400.4 654.3c-10.3 10.3-27 10.3-37.3 0-10.3-10.3-10.3-27 0-37.3l325.4-325.4c32.2-32.2 32.2-84.5 0-116.6-32.2-32.2-84.5-32.2-116.6 0L198.4 548.5M630.3 98.1" fill="#8a8a8a" p-id="5915"></path><path d="M371 375.9l341.2 341.2c42.5 42.5 42.5 111.4 0 153.9s-111.4 42.5-153.9 0L217 529.9" fill="#8a8a8a" p-id="5916"></path><path d="M198.4 548.5l336.3 336.3c25.5 25.5 59.5 39.6 95.6 39.6 36.1 0 70.1-14.1 95.6-39.6 52.7-52.7 52.7-138.5 0-191.2L389.6 357.3m-74.6 0l17.4 17.4 19.8 19.8 336.3 336.3c32.2 32.2 32.2 84.5 0 116.6-15.6 15.6-36.3 24.2-58.3 24.2s-42.7-8.6-58.3-24.2L235.7 511.2l-20.5-20.5-16.7-16.7" fill="#8a8a8a" p-id="5917"></path></svg>