<svg width="800" height="600" xmlns="http://www.w3.org/2000/svg">
 <g id="Layer_1">
  <title>Layer 1</title>
  <rect fill="#ffce84" stroke="#000" x="-87.33333" y="105.66667" width="976" height="435" id="svg_1"/>
  <ellipse ry="81" rx="81" id="svg_3" cy="286.55519" cx="270.43913" stroke="#000" fill="#ff9900"/>
  <path stroke="#000" id="svg_2" d="m18.00044,399.9077c105,58.39304 197,-98.91065 255,-63.15981c58,35.75084 132,188.28775 174,188.28775c42,0 96,47.66778 252,-97.71896c156,-145.38674 336,64.35151 335.33333,63.55705c0.66667,0.79446 0.66667,106.85528 0,106.06082c0.66667,0.79446 -1092.33333,11.51971 -1092,10.72525c-0.33333,0.79446 -1.33333,-216.09396 -1,-216.88842c-0.33333,0.79446 -28.33333,-49.25671 76.66667,9.13633l0,-0.00001z" opacity="NaN" fill="#bfbf00"/>
  <rect opacity="NaN" stroke="#000" id="svg_7" height="107.78131" width="6.66688" y="410.76404" x="78.53422" fill="#894F3F"/>
  <rect opacity="NaN" stroke="#000" id="svg_8" height="45.55705" width="7.77803" y="411.87519" x="199.6493" fill="#894F3F"/>
  <rect opacity="NaN" id="svg_9" height="81.11377" width="7.77803" y="484.09978" x="378.54406" stroke="#000" fill="#894F3F"/>
  <rect opacity="NaN" id="svg_10" height="75.55803" width="5.55574" y="495.21126" x="566.328" stroke="#000" fill="#894F3F"/>
  <path id="svg_12" d="m21.82908,415.70298l60.55754,-52.22394l60.55754,52.22394l-121.11508,0z" stroke="#000" fill="#B8D078"/>
  <path stroke="#000" id="svg_15" d="m41.94642,375.88504l39.44574,-35.55672l39.44574,35.55672l-78.89148,0z" fill="#B8D078"/>
  <path stroke="#000" id="svg_17" d="m60.45706,344.98449l20.00066,-38.89017l20.00066,38.89017l-40.00131,0l-0.00001,0z" fill="#B8D078"/>
  <path id="svg_20" d="m321.83894,504.59479l60.55754,-52.22394l60.55755,52.22394l-121.11509,0z" stroke="#000" fill="#B8D078"/>
  <path stroke="#000" id="svg_21" d="m343.06741,459.2211l39.44574,-35.55672l39.44574,35.55672l-78.89148,0z" fill="#bedb6f"/>
  <path stroke="#000" id="svg_22" d="m361.57805,429.4317l20.00065,-38.89017l20.00066,38.89017l-40.00131,0z" fill="#d3ea93"/>
  <path id="svg_23" d="m508.51173,505.70593l60.55754,-52.22394l60.55754,52.22394l-121.11508,0z" stroke="#000" fill="#bdbf67"/>
  <path stroke="#000" id="svg_24" d="m530.85136,463.66569l39.44574,-35.55672l39.44574,35.55672l-78.89148,0z" fill="#d4db7a"/>
  <path stroke="#000" id="svg_25" d="m547.13971,436.09859l20.00065,-38.89017l20.00066,38.89017l-40.00131,0z" fill="#d4db7a"/>
  <path transform="rotate(-40.7211 202.161 365.341)" stroke="#000" id="svg_49" d="m199.32648,334.39413c-58.94505,49.13456 -45.84615,98.26913 5.95405,67.06689c51.8002,-31.20224 52.99101,-116.20145 -5.95405,-67.06689z" fill="#E6C36A"/>
  <path stroke="#000" id="svg_54" d="m202.02429,358.82961c-10.81928,-19.48037 -15.70877,-19.91978 -15.70877,-19.91978c0,0 13.10798,22.11681 13.14327,22.11552c-0.03529,0.0013 13.38478,17.28463 2.5655,-2.19574z" opacity="NaN" fill="#CE7975"/>
  <path stroke="#000" id="svg_55" d="m209.8488,381.05256c12.10751,-19.48037 17.57918,-19.91977 17.57918,-19.91977c0,0 -14.66872,22.11681 -14.70821,22.11551c0.03949,0.0013 -14.97848,17.28464 -2.87097,-2.19574z" opacity="NaN" fill="#CE7975"/>
  <path stroke="#000" id="svg_56" d="m200.91314,397.71978c-10.81928,-19.48037 -15.70877,-19.91978 -15.70877,-19.91978c0,0 13.10798,22.11682 13.14327,22.11552c-0.03529,0.0013 13.38478,17.28463 2.5655,-2.19574z" opacity="NaN" fill="#CE7975"/>
  <path transform="rotate(-37.3513 204.486 373.434)" stroke="#000" id="svg_57" d="m187.52889,388.28432c29.71036,-44.08523 45.77002,-51.91101 45.77002,-51.91101c0,0 -20.87755,27.39023 -31.04867,45.65039c-10.17112,18.26015 -44.43172,50.34585 -14.72135,6.26062z" opacity="NaN" fill="#894F3F"/>
  <path id="svg_30" d="m79.64537,210.75746c371.12329,-80.00262 204.45115,80.00262 548.9069,-11.11148c344.45574,-91.1141 386.67935,13.33377 385.92545,12.58318c0.7539,0.75059 5.19849,-234.81269 5.19849,-235.92384c0,-1.11115 -1038.92297,-36.66787 -1038.56571,-36.30731c-0.35726,-0.36056 -3.6907,261.87027 -3.33344,261.11967c-0.35726,0.75059 -269.25497,89.6424 101.86831,9.63977l0,0.00001z" opacity="NaN" stroke="#000" fill="#f9da3b"/>
  <path id="svg_32" d="m6.30963,31.86272c274.45345,73.33574 228.8964,157.78295 555.57378,90.00295c326.67738,-67.78 386.67935,-32.22328 385.92545,-32.97387c0.7539,0.75059 -10.35758,-154.81007 -11.11148,-154.44951c0.7539,-0.36056 -963.72219,-0.36056 -963.36492,0c-0.35726,-0.36056 -241.47628,24.08469 32.97717,97.42043z" opacity="NaN" stroke="#000" fill="#fcfc97"/>
  <path id="svg_33" d="m136.31389,-14.80548c246.67476,95.55869 415.56919,128.89312 526.68395,57.77967c111.11476,-71.11344 102.22558,-91.1141 101.47168,-90.75354c0.7539,-0.36056 -633.71136,-13.69433 -634.46525,-13.33377c0.75389,-0.36056 -240.36513,-49.25105 6.30963,46.30764l-0.00001,0z" opacity="NaN" stroke="#000" fill="#ffaaaa"/>
 </g>

</svg>